C:\GBW_MyPrograms\KinderuniversiteitApp\Resultaten\Ellis\MrImpossible\MrImpossible_v1.mot
version=1
nRows=18
nColumns=29
inDegrees=yes
endheader
                time	         pelvis_tilt	           pelvis_tx	           pelvis_ty	       hip_flexion_l	       hip_flexion_r	        knee_angle_l	        knee_angle_r	       ankle_angle_l	       ankle_angle_r	    lumbar_extension	hamstrings_r/activation	bifemsh_r/activation	glut_max_r/activation	iliopsoas_r/activation	rect_fem_r/activation	  vasti_r/activation	gastroc_r/activation	 soleus_r/activation	tib_ant_r/activation	hamstrings_l/activation	bifemsh_l/activation	glut_max_l/activation	iliopsoas_l/activation	rect_fem_l/activation	  vasti_l/activation	gastroc_l/activation	 soleus_l/activation	tib_ant_l/activation	
          1.03806241	          2.97966970	          1.28124590	          0.89613246	        -21.14902702	         24.70304151	        -11.43835080	        -16.84138847	          7.86287807	         11.31733899	         -9.29217325	          0.15892909	          0.05001106	          0.05468127	          0.05000160	          0.05865507	          0.06044599	          0.05896959	          0.05044548	          0.22996800	          0.05000338	          0.10654719	          0.05000164	          0.41497719	          0.05000226	          0.05000061	          0.09789430	          0.16432181	          0.05000024	
          1.04844304	          2.92081530	          1.29788475	          0.89562980	        -20.56117037	         23.93807993	        -14.24259772	        -16.92621406	          6.73368120	         11.13738617	         -8.80203116	          0.14211085	          0.08155464	          0.06923727	          0.05000223	          0.05000486	          0.08609121	          0.06585160	          0.05865387	          0.22958282	          0.05000398	          0.09083247	          0.06120723	          0.38338920	          0.05000217	          0.05000065	          0.08345566	          0.14008563	          0.05000015	
          1.05882366	          2.86859925	          1.31465772	          0.89512783	        -19.78523652	         23.09317149	        -17.35212414	        -17.32268358	          5.33265955	         11.06616747	         -8.29960538	          0.12269345	          0.08072177	          0.09052707	          0.05000108	          0.05000075	          0.12359524	          0.05614227	          0.05000348	          0.24915644	          0.05000339	          0.07743562	          0.08070415	          0.34452681	          0.05000264	          0.05000221	          0.07114661	          0.11942407	          0.05000144	
          1.06920428	          2.81908379	          1.33117935	          0.89486205	        -18.80287092	         22.25579104	        -20.71771048	        -17.69913280	          3.65239751	         10.91495126	         -7.82934310	          0.10459785	          0.06881676	          0.13461335	          0.05000028	          0.05000038	          0.17394015	          0.05000224	          0.05000221	          0.26000075	          0.06374206	          0.06601493	          0.06880125	          0.30042888	          0.05000068	          0.05000053	          0.06065306	          0.10180993	          0.16770621	
          1.07958491	          2.77050738	          1.34706363	          0.89492702	        -17.63914889	         21.52716958	        -24.18286559	        -18.18056953	          2.43840782	         10.74708129	         -7.43808819	          0.08917056	          0.05866738	          0.13146637	          0.05000075	          0.05002931	          0.22007460	          0.05000193	          0.05000175	          0.27301879	          0.07026219	          0.05628039	          0.05865383	          0.27837667	          0.05000134	          0.05000023	          0.05511325	          0.08679377	          0.16511024	
          1.08996553	          2.72111444	          1.36220465	          0.89541810	        -16.38549098	         20.86216461	        -27.34470672	        -18.68059205	          2.43985974	         10.60672176	         -7.13630415	          0.07736562	          0.05001865	          0.11207851	          0.05000068	          0.05000120	          0.25790295	          0.05000145	          0.05000169	          0.28149941	          0.09830782	          0.08831899	          0.05000299	          0.23731971	          0.05000086	          0.05000014	          0.05000097	          0.07399242	          0.21078687	
          1.10034616	          2.67180634	          1.37669313	          0.89646871	        -15.06172468	         20.14526602	        -30.14725075	        -19.01100874	          2.79895279	         10.52253479	         -6.91189458	          0.06659818	          0.05001211	          0.09554817	          0.05000181	          0.05000365	          0.27643441	          0.05000185	          0.05000169	          0.28593287	          0.11129785	          0.11390118	          0.05000039	          0.20884223	          0.05000114	          0.05000015	          0.05000433	          0.06307919	          0.20375974	
          1.11072678	          2.62232435	          1.39063210	          0.89809133	        -13.68713379	         19.30863839	        -32.58733358	        -19.06844180	          3.32778548	         10.52013950	         -6.75052548	          0.06182797	          0.05022556	          0.08145602	          0.05000237	          0.05000347	          0.27315129	          0.05000237	          0.05000174	          0.28486418	          0.13194643	          0.14563300	          0.05000043	          0.17969993	          0.05001768	          0.05000015	          0.05490552	          0.05377582	          0.19637957	
          1.12110741	          2.57316619	          1.40409729	          0.90022326	        -12.27213983	         18.35073491	        -34.69159796	        -18.86086650	          3.92185057	         10.59722195	         -6.64292754	          0.06192264	          0.05002758	          0.06944499	          0.05000087	          0.05000174	          0.25447409	          0.05000347	          0.05000249	          0.27840842	          0.14523008	          0.17550683	          0.05000049	          0.15319961	          0.08197947	          0.05000017	          0.05381609	          0.05000061	          0.19089296	
          1.13148803	          2.52529410	          1.41715931	          0.90275192	        -10.83409920	         17.30224802	        -36.46381246	        -18.45044619	          4.45669861	         10.72860869	         -6.58149489	          0.06121900	          0.05001174	          0.06385877	          0.05000075	          0.05000185	          0.22812892	          0.05000261	          0.05000303	          0.26978543	          0.12381630	          0.21062580	          0.05000052	          0.13121853	          0.10494595	          0.05000020	          0.05180211	          0.05000049	          0.18816823	
          1.14186865	          2.48023017	          1.42988620	          0.90553671	         -9.39148641	         16.19560753	        -37.90979784	        -17.90229940	          4.93670373	         10.88321603	         -6.55987743	          0.06053353	          0.05000677	          0.06213110	          0.05000069	          0.05000216	          0.20126663	          0.05000181	          0.05000340	          0.26066999	          0.10555637	          0.24988908	          0.05000051	          0.11482606	          0.12376501	          0.05000023	          0.05108463	          0.05000061	          0.18708443	
          1.15224928	          2.43958849	          1.44232933	          0.90843352	         -7.94767674	         15.05798490	        -39.06660258	        -17.27132706	          5.38695985	         11.03567731	         -6.57407266	          0.05955490	          0.05000473	          0.06281798	          0.05000064	          0.05000276	          0.17806462	          0.05000138	          0.05000345	          0.25242185	          0.08998882	          0.29125857	          0.05000049	          0.10256207	          0.13663577	          0.05000028	          0.05020132	          0.05000068	          0.18701414	
          1.16262990	          2.40471705	          1.45452206	          0.91131168	         -6.49135429	         13.90915644	        -40.00364630	        -16.59793397	          5.82068947	         11.17170063	         -6.62207050	          0.05835158	          0.05000369	          0.06390780	          0.05000061	          0.05000294	          0.16006381	          0.05000114	          0.05000376	          0.24557902	          0.07671711	          0.33160621	          0.05000046	          0.09335288	          0.14477236	          0.05000033	          0.05000971	          0.05000067	          0.18792690	
          1.17301053	          2.37663537	          1.46648530	          0.91406420	         -5.00436483	         12.76178902	        -40.80295121	        -15.90862862	          6.23988853	         11.28493961	         -6.70301571	          0.05662266	          0.05000306	          0.06466541	          0.05000063	          0.05025000	          0.14692330	          0.05000109	          0.05000547	          0.23989321	          0.06540287	          0.36729108	          0.05000044	          0.08664519	          0.14942351	          0.05000038	          0.05000734	          0.05000068	          0.18906627	
          1.18339115	          2.35600415	          1.47823552	          0.91661092	         -3.46985096	         11.62133398	        -41.53868081	        -15.21569781	          6.64891509	         11.37175551	         -6.81612477	          0.05637364	          0.05000294	          0.06678177	          0.05000059	          0.06687859	          0.13758778	          0.05000098	          0.05000390	          0.23649586	          0.05575790	          0.39372904	          0.05000042	          0.07913662	          0.15057509	          0.05000043	          0.05000532	          0.05000068	          0.19045014	
          1.19377177	          2.34324842	          1.48979485	          0.91890027	         -1.88019471	         10.48269866	        -42.25885938	        -14.51285246	          7.05025490	         11.43447803	         -6.95952908	          0.05555866	          0.05000283	          0.06830604	          0.05000058	          0.08237110	          0.13029418	          0.05000096	          0.05000396	          0.23388781	          0.05000332	          0.41002513	          0.05000041	          0.07331420	          0.15039483	          0.05000046	          0.05000469	          0.05000068	          0.19178608	
          1.20415240	          2.33860647	          1.50118841	          0.92090451	         -0.23665535	          9.33917243	        -42.98660359	        -13.79275132	          7.44319547	         11.48223157	         -7.13071937	          0.05478747	          0.05000278	          0.06788649	          0.05000059	          0.09878898	          0.12397914	          0.05000095	          0.05000418	          0.23184566	          0.05000316	          0.41710979	          0.05000039	          0.06874295	          0.14880643	          0.05000047	          0.05000455	          0.05000068	          0.19304150	
          1.21453302	          2.34223243	          1.51244062	          0.92261218	          1.45393563	          8.18794744	        -43.72963971	        -13.05466570	          7.82695982	         11.52043164	         -7.32715513	          0.05397252	          0.05000278	          0.06677580	          0.05000059	          0.11485797	          0.11825144	          0.05000095	          0.05000492	          0.23008184	          0.05000250	          0.41657481	          0.05000038	          0.06560982	          0.14629406	          0.05000047	          0.05000464	          0.05000067	          0.19415743	
